<svg width="32" height="32" viewBox="0 0 32 32" fill="none" xmlns="http://www.w3.org/2000/svg">
<path d="M11.5 6.5C11.5 8.433 9.933 10 8 10C6.067 10 4.5 8.433 4.5 6.5C4.5 4.567 6.067 3 8 3C9.933 3 11.5 4.567 11.5 6.5Z" fill="#FFA07A"/>
<path d="M19.5 4.5C19.5 6.433 17.933 8 16 8C14.067 8 12.5 6.433 12.5 4.5C12.5 2.567 14.067 1 16 1C17.933 1 19.5 2.567 19.5 4.5Z" fill="#FFA07A"/>
<path d="M27.5 6.5C27.5 8.433 25.933 10 24 10C22.067 10 20.5 8.433 20.5 6.5C20.5 4.567 22.067 3 24 3C25.933 3 27.5 4.567 27.5 6.5Z" fill="#FFA07A"/>
<path d="M25.5 15.5C25.5 19.6421 22.1421 23 18 23H14C9.85786 23 6.5 19.6421 6.5 15.5C6.5 11.3579 9.85786 8 14 8H18C22.1421 8 25.5 11.3579 25.5 15.5Z" fill="#FFA07A"/>
<path d="M18 19C19.6569 19 21 17.6569 21 16C21 14.3431 19.6569 13 18 13C16.3431 13 15 14.3431 15 16C15 17.6569 16.3431 19 18 19Z" fill="#FFDAB9"/>
</svg>
